<svg width="25" height="24" viewBox="0 0 25 24" fill="none" xmlns="http://www.w3.org/2000/svg">
<path d="M3.6875 4.1875L7.1875 6.90625C8.59375 5.84375 10.3438 5 12.5 5C15 5 17.0312 6.15625 18.5 7.53125C19.9688 8.875 20.9375 10.5 21.4062 11.625C21.5 11.875 21.5 12.1562 21.4062 12.4062C21 13.4062 20.1562 14.8438 18.9062 16.0938L22.1875 18.6875C22.5312 18.9375 22.5938 19.4062 22.3125 19.7188C22.0625 20.0625 21.5938 20.125 21.2812 19.8438L2.78125 5.34375C2.4375 5.09375 2.375 4.625 2.65625 4.3125C2.90625 3.96875 3.375 3.90625 3.6875 4.1875ZM8.40625 7.875L9.84375 9C10.5625 8.375 11.4688 8 12.5 8C14.6875 8 16.5 9.8125 16.5 12C16.5 12.6875 16.3438 13.3125 16.0312 13.8438L17.7188 15.1562C18.8125 14.0938 19.5625 12.875 19.9375 12C19.5312 11.0625 18.6875 9.75 17.4688 8.625C16.1875 7.4375 14.5312 6.5 12.5 6.5C10.9062 6.5 9.5625 7.0625 8.40625 7.875ZM14.8125 12.9062C14.9375 12.625 15 12.3125 15 12C15 10.625 13.875 9.5 12.5 9.5C12.4688 9.5 12.4375 9.5 12.4375 9.5C12.4688 9.6875 12.5 9.84375 12.5 10C12.5 10.3438 12.4062 10.625 12.2812 10.9062L14.8125 12.9062ZM15.125 16.9688L16.4375 18C15.2812 18.625 13.9688 19 12.5 19C9.96875 19 7.9375 17.875 6.46875 16.5C5 15.125 4.03125 13.5 3.5625 12.4062C3.46875 12.1562 3.46875 11.875 3.5625 11.625C3.875 10.9062 4.375 10 5.09375 9.0625L6.25 10C5.6875 10.7188 5.28125 11.4375 5.03125 12C5.46875 12.9375 6.28125 14.2812 7.5 15.4062C8.78125 16.5938 10.4375 17.5 12.5 17.5C13.4375 17.5 14.3125 17.3125 15.125 16.9688ZM8.5 12H8.46875C8.46875 11.9375 8.5 11.8438 8.5 11.75L10.25 13.125C10.5625 13.7812 11.1875 14.2812 11.9375 14.4375L13.6875 15.8438C13.3125 15.9375 12.9062 16 12.5 16C10.2812 16 8.5 14.2188 8.5 12Z" fill="#7A869A"/>
</svg>
