<svg width="25" height="24" viewBox="0 0 25 24" fill="none" xmlns="http://www.w3.org/2000/svg">
<path d="M12.5 6.5C10.4375 6.5 8.78125 7.4375 7.5 8.625C6.28125 9.75 5.46875 11.0625 5.03125 12C5.46875 12.9375 6.28125 14.2812 7.5 15.4062C8.78125 16.5938 10.4375 17.5 12.5 17.5C14.5312 17.5 16.1875 16.5938 17.4688 15.4062C18.6875 14.2812 19.5312 12.9375 19.9375 12C19.5312 11.0625 18.6875 9.75 17.5 8.625C16.1875 7.4375 14.5312 6.5 12.5 6.5ZM6.46875 7.53125C7.9375 6.15625 9.96875 5 12.5 5C15 5 17.0312 6.15625 18.5 7.53125C19.9688 8.90625 20.9375 10.5 21.4062 11.625C21.5 11.875 21.5 12.1562 21.4062 12.4062C20.9375 13.5 19.9688 15.125 18.5 16.5C17.0312 17.875 15 19 12.5 19C9.96875 19 7.9375 17.875 6.46875 16.5C5 15.125 4.03125 13.5 3.5625 12.4062C3.46875 12.1562 3.46875 11.875 3.5625 11.625C4.03125 10.5 5 8.875 6.46875 7.53125ZM12.5 14.5C13.875 14.5 15 13.4062 15 12C15 10.625 13.875 9.5 12.5 9.5C12.4688 9.5 12.4375 9.5 12.4375 9.5C12.4688 9.6875 12.5 9.84375 12.5 10C12.5 11.125 11.5938 12 10.5 12C10.3125 12 10.1562 12 10 11.9375C10 11.9688 10 12 10 12C10 13.4062 11.0938 14.5 12.5 14.5ZM12.5 8C13.9062 8 15.2188 8.78125 15.9375 10C16.6562 11.25 16.6562 12.7812 15.9375 14C15.2188 15.25 13.9062 16 12.5 16C11.0625 16 9.75 15.25 9.03125 14C8.3125 12.7812 8.3125 11.25 9.03125 10C9.75 8.78125 11.0625 8 12.5 8Z" fill="#7A869A"/>
</svg>
